<svg width="122" height="28" viewBox="0 0 122 28" fill="none" xmlns="http://www.w3.org/2000/svg">
<path d="M93.7385 8.39822C93.7197 12.3581 93.7009 16.318 93.6821 20.2779C93.6821 20.6835 93.6821 21.0892 93.6821 21.4948C91.6325 21.7652 90.8051 21.6493 90.5795 21.2244C89.4137 21.3596 88.3043 21.4948 87.1949 21.6107C86.9504 21.5721 86.706 21.5334 86.4615 21.5141C86.2735 21.4562 86.0855 21.3982 85.8974 21.3403C83.6222 20.2972 82.306 18.5394 82.0991 15.951C82.4376 11.5468 85.5778 9.59584 90.6171 10.6969C90.6171 9.24815 90.6171 7.81873 90.6171 6.35067C91.1812 6.31204 91.6325 6.29272 92.1026 6.25409C92.5915 6.27341 93.0615 6.31204 93.6256 6.33136C93.6444 7.04607 93.6821 7.72214 93.7385 8.39822ZM85.2769 15.8351C85.2581 17.3997 86.4051 18.5973 87.9094 18.5973C89.3573 18.5973 90.5607 17.3997 90.5795 15.9317C90.5983 14.4056 89.4137 13.1694 87.9282 13.1694C86.4427 13.1694 85.2769 14.3284 85.2769 15.8351Z" fill="#1E1E1E"/>
<path d="M47.1436 21.5334C45.9214 21.5334 44.7179 21.5334 43.3265 21.5334C43.3265 19.0223 43.3265 16.5111 43.3265 13.9807C43.3265 11.4309 43.3265 8.88113 43.3265 6.21545C45.1692 6.21545 46.9179 6.21545 48.6479 6.21545C50.6598 6.21545 52.653 6.21545 54.7214 6.21545C54.7214 7.52898 54.7214 8.74591 54.7214 10.0594C52.2205 10.0594 49.7573 10.0594 47.2188 10.0594C47.2188 10.7935 47.2188 11.4502 47.2188 12.2036C48.9299 12.2036 50.6598 12.2036 52.4838 12.2036C52.5214 12.9762 52.559 13.6716 52.5778 14.367C52.559 14.5988 52.5214 14.8113 52.5402 15.0238C52.6154 15.6612 52.3333 15.8544 51.7316 15.8351C50.2462 15.7964 48.7419 15.8157 47.1248 15.8157C47.1436 17.786 47.1436 19.6597 47.1436 21.5334Z" fill="#1E1E1E"/>
<path d="M64.2171 10.2526C65.3829 10.2526 66.4359 10.2526 67.5453 10.2526C67.5453 14.0193 67.5453 17.7281 67.5453 21.5721C66.4735 21.3403 65.3829 21.997 64.3487 21.2051C64.1795 21.0698 63.7094 21.3403 63.3709 21.3982C61.0957 21.7845 58.9521 21.5527 57.4479 19.5052C56.9026 18.7712 56.4701 17.786 56.3949 16.8975C56.2445 14.734 56.3385 12.5319 56.3385 10.2719C57.4291 10.2719 58.5385 10.2719 59.7043 10.2719C59.7043 12.107 59.6855 13.9034 59.7043 15.6999C59.7231 17.6315 60.7197 18.4428 62.5624 18.0758C63.5402 17.8826 64.0291 17.2065 64.0667 16.26C64.1419 14.5215 64.1231 12.7831 64.1607 11.0639C64.1795 10.8321 64.1983 10.581 64.2171 10.2526Z" fill="#1E1E1E"/>
<path d="M77.041 10.5037C78.9402 11.4889 80.2376 12.9569 80.6325 15.159C80.6325 17.2452 80.6325 19.3313 80.6325 21.4948C79.5983 21.4948 78.6205 21.4948 77.5111 21.4948C77.5111 19.6211 77.5487 17.7667 77.4923 15.893C77.4735 14.5409 76.5897 13.4591 75.4427 13.2273C74.1829 12.9569 72.9795 13.5171 72.4718 14.6761C72.265 15.159 72.1898 15.7192 72.1898 16.26C72.1521 17.9985 72.1709 19.7177 72.1709 21.5141C71.1368 21.5141 70.1966 21.5141 69.1624 21.5141C69.1624 17.786 69.1624 14.0386 69.1624 10.1946C69.9897 10.1946 70.8547 9.96285 71.5128 10.2526C72.5094 10.6776 73.3556 10.1174 74.2581 10.156C75.1795 10.214 76.1009 10.3878 77.041 10.5037Z" fill="#1E1E1E"/>
<path d="M85.8786 21.3209C86.0667 21.3789 86.2547 21.4368 86.4427 21.4948" stroke="black" stroke-width="0.25" stroke-miterlimit="10"/>
<path d="M117.431 21.2437C114.366 21.4175 111.301 21.5721 108.161 21.7459C108.123 20.8767 108.085 20.2392 108.067 19.6018C108.085 15.584 108.104 11.5661 108.104 7.54829C108.104 7.16196 108.104 6.79495 108.104 6.2734C109.421 6.2734 110.643 6.25408 111.884 6.2734C113.463 6.31203 115.08 6.2734 116.641 6.48588C119.65 6.89153 121.699 9.49926 121.944 12.5126C122.038 13.7489 122 15.0238 121.774 16.2407C121.304 18.7519 119.744 20.3551 117.431 21.2437ZM112.053 10.1367C112.053 12.7251 112.053 15.2169 112.053 17.7281C113.012 17.7281 113.877 17.7474 114.761 17.7281C116.453 17.6701 117.581 16.8782 118.014 15.4681C118.559 13.6909 118.07 11.6241 116.829 10.7355C116.415 10.4264 115.87 10.1947 115.381 10.156C114.291 10.0788 113.181 10.1367 112.053 10.1367Z" fill="#1E1E1E"/>
<path d="M99.4171 21.63C98.0445 21.63 96.6718 21.63 95.1863 21.63C95.1863 17.3997 95.1863 13.2853 95.1863 9.19019C95.1863 8.263 95.1863 7.33581 95.1863 6.35067C99.0034 6.35067 102.764 6.35067 106.562 6.35067C106.562 7.56761 106.562 8.78455 106.562 10.0981C104.08 10.0981 101.598 10.0981 99.0786 10.0981C99.0786 10.8514 99.0786 11.4889 99.0786 12.2422C100.79 12.2422 102.52 12.2422 104.306 12.2422C104.306 13.4978 104.306 14.6374 104.306 15.8544C102.557 15.8544 100.846 15.8544 99.0786 15.8544C99.0786 16.5111 99.0786 17.0713 99.0786 17.7281C101.542 17.7281 104.005 17.7281 106.544 17.7281C106.581 18.3462 106.619 18.8871 106.656 19.4086C106.656 20.0847 106.656 20.7415 106.656 21.6107C104.193 21.63 101.805 21.63 99.4171 21.63Z" fill="#1E1E1E"/>
<path d="M1.0188 3.37593C1.0188 2.6419 1.0188 1.92719 1.0188 1.07726C2.03419 1.07726 2.95556 1.07726 3.87692 1.07726C3.7453 1.96582 4.10256 2.25557 4.96752 2.21694C6.35897 2.15899 7.75043 2.19762 9.14188 2.19762C11.2103 2.19762 13.2786 2.19762 15.347 2.19762C17.0205 2.19762 18.7128 2.21694 20.3863 2.21694C20.3863 2.25557 20.4051 2.31352 20.3863 2.35215C18.6 2.37147 16.7949 2.4101 14.9709 2.42942C10.7966 2.42942 6.62222 2.42942 2.41026 2.42942C2.41026 10.1946 2.41026 17.8633 2.41026 25.6478C5.83248 25.6478 9.16068 25.6478 12.5077 25.6478C11.4359 25.7058 10.3641 25.7444 9.31111 25.8024C7.86325 25.8024 6.39658 25.841 4.94872 25.7831C4.08376 25.7444 3.7265 26.0535 3.85812 26.9227C2.95556 26.9227 2.05299 26.9227 1 26.9227C1.0188 19.0223 1.0188 11.1991 1.0188 3.37593Z" fill="#6A70AF" stroke="black" stroke-width="0.25" stroke-miterlimit="10"/>
<path d="M9.32991 25.7831C10.4017 25.7251 11.4735 25.6865 12.5265 25.6285C14.2752 25.6092 16.0427 25.5706 17.7915 25.5513C19.8598 25.5706 21.9282 25.5899 23.9966 25.6092C23.9966 25.6672 23.9966 25.7058 23.9966 25.7637C22.8684 25.7637 21.7402 25.7831 20.6308 25.7831C18.8821 25.7831 17.1521 25.8024 15.4034 25.7637C14.5009 25.7444 14.2752 26.0728 14.6137 26.9034C13.6735 26.9227 12.7333 26.942 11.7932 26.9614C11.041 26.942 10.2889 26.9227 9.53675 26.9034C9.46154 26.5364 9.38632 26.1694 9.32991 25.7831Z" fill="#7E69AB" stroke="black" stroke-width="0.25" stroke-miterlimit="10"/>
<path d="M9.32991 25.7831C9.40513 26.1501 9.46154 26.5364 9.53675 26.9034C7.65641 26.9034 5.77607 26.9034 3.89573 26.9034C3.7641 26.0342 4.12137 25.7251 4.98632 25.7637C6.41538 25.841 7.86325 25.7831 9.32991 25.7831Z" fill="#7573B6" stroke="black" stroke-width="0.25" stroke-miterlimit="10"/>
<path d="M15.347 2.19762C13.2786 2.19762 11.2103 2.19762 9.14188 2.19762C9.14188 1.83061 9.14188 1.4636 9.14188 1.09658C10.9658 1.07727 12.7709 1.05795 14.5949 1.03864C14.8393 1.05795 15.1026 1.07727 15.347 1.09658C15.347 1.4636 15.347 1.83061 15.347 2.19762Z" fill="#816FB1" stroke="black" stroke-width="0.25" stroke-miterlimit="10"/>
<path d="M9.14188 1.09658C9.14188 1.4636 9.14188 1.83061 9.14188 2.19762C7.75043 2.19762 6.35898 2.15899 4.96752 2.23626C4.10256 2.27489 3.7453 1.98514 3.87692 1.09658C5.64445 1.07727 7.39316 1.09658 9.14188 1.09658Z" fill="#7573B6" stroke="black" stroke-width="0.25" stroke-miterlimit="10"/>
<path d="M20.988 1.09658C22.9248 1.09658 24.8803 1.09658 26.8171 1.09658C26.8171 1.46359 26.8171 1.83061 26.8171 2.19762C24.8803 2.19762 22.9436 2.19762 20.988 2.19762C21.0068 1.83061 21.0068 1.46359 20.988 1.09658Z" fill="#9F6CAE" stroke="black" stroke-width="0.25" stroke-miterlimit="10"/>
<path d="M20.988 1.09658C20.988 1.46359 21.0068 1.83061 21.0068 2.19762C20.8 2.19762 20.5932 2.21694 20.4051 2.21694C18.7316 2.21694 17.0393 2.19762 15.3658 2.19762C15.3658 1.83061 15.3658 1.46359 15.3658 1.09658C17.2274 1.09658 19.1077 1.09658 20.988 1.09658Z" fill="#8E6EB1" stroke="black" stroke-width="0.25" stroke-miterlimit="10"/>
<path d="M26.8359 2.19762C26.8359 1.83061 26.8359 1.4636 26.8359 1.09658C27.5316 1.07727 28.2085 1.05795 28.9043 1.03864C29.7128 1.05795 30.5402 1.07727 31.3487 1.09658C31.2923 1.4636 31.2359 1.83061 31.1607 2.19762C29.7128 2.19762 28.265 2.19762 26.8359 2.19762Z" fill="#AA6BAC" stroke="black" stroke-width="0.25" stroke-miterlimit="10"/>
<path d="M35.0906 1.09658C35.6547 1.07727 36.2188 1.05795 36.7829 1.03864C36.9709 1.21248 37.2718 1.36702 37.3282 1.5795C37.4222 2.04309 37.3658 2.52601 37.3846 3.00892C37.3846 6.15751 37.3846 9.32541 37.3846 12.474C37.3846 17.2452 37.3846 22.0357 37.3846 26.9034C36.8769 26.9421 36.4632 26.9614 36.0308 27C35.4667 26.9807 34.9026 26.9614 34.3385 26.9421C34.2821 26.575 34.2068 26.208 34.1504 25.8217C34.3385 25.8217 34.5265 25.8024 34.7145 25.8024C36.3316 25.7831 36.2188 25.9376 36.2188 24.2184C36.2188 17.2838 36.2 10.3492 36.2376 3.43388C36.2376 2.52601 36.012 2.10104 35.0906 2.21694C35.0906 1.83061 35.0906 1.4636 35.0906 1.09658Z" fill="#C16AAA" stroke="black" stroke-width="0.25" stroke-miterlimit="10"/>
<path d="M20.612 25.8024C21.7402 25.8024 22.8684 25.7831 23.9778 25.7831C25.1812 25.7831 26.3658 25.8024 27.5692 25.8024C27.6256 26.1694 27.682 26.5364 27.7385 26.9034C25.4256 26.9034 23.094 26.9034 20.7812 26.9034C20.7436 26.5364 20.6872 26.1694 20.612 25.8024Z" fill="#9F6CAE" stroke="black" stroke-width="0.25" stroke-miterlimit="10"/>
<path d="M27.7761 26.9034C27.7197 26.5364 27.6632 26.1694 27.6068 25.8024C29.788 25.8024 31.988 25.8024 34.1692 25.8024C34.2256 26.1694 34.3009 26.5364 34.3573 26.9227C32.1573 26.9034 29.9573 26.9034 27.7761 26.9034Z" fill="#B568A9" stroke="black" stroke-width="0.25" stroke-miterlimit="10"/>
<path d="M20.612 25.8024C20.6684 26.1694 20.7436 26.5364 20.8 26.9034C18.7316 26.9034 16.6632 26.9034 14.5949 26.9034C14.2564 26.0728 14.4821 25.7444 15.3846 25.7637C17.1333 25.8217 18.8821 25.8024 20.612 25.8024Z" fill="#8E6EB1" stroke="black" stroke-width="0.25" stroke-miterlimit="10"/>
<path d="M35.0906 1.09658C35.0906 1.46359 35.0906 1.83061 35.0906 2.19762C33.7744 2.19762 32.4581 2.19762 31.1419 2.19762C31.1983 1.83061 31.2547 1.46359 31.3299 1.09658C32.5897 1.09658 33.8496 1.09658 35.0906 1.09658Z" fill="#B568A9" stroke="black" stroke-width="0.25" stroke-miterlimit="10"/>
<path d="M32.6462 25.5513C33.7368 25.5513 34.8273 25.5513 35.9744 25.5513C35.9744 17.844 35.9744 10.1947 35.9744 2.35216C30.7846 2.35216 25.5949 2.35216 20.4051 2.35216C20.4051 2.31352 20.4051 2.25557 20.4051 2.21694C20.612 2.21694 20.8188 2.19762 21.0068 2.19762C22.9436 2.19762 24.8803 2.19762 26.8359 2.19762C28.2838 2.19762 29.7128 2.19762 31.1607 2.19762C32.4769 2.19762 33.7932 2.19762 35.1094 2.19762C36.012 2.08172 36.2564 2.50669 36.2564 3.41456C36.2188 10.3492 36.2376 17.2838 36.2376 24.1991C36.2376 25.9183 36.3692 25.7637 34.7333 25.7831C34.5453 25.7831 34.3573 25.8024 34.1692 25.8024C31.988 25.8024 29.788 25.8024 27.6068 25.8024C26.4034 25.8024 25.2188 25.7831 24.0154 25.7831C24.0154 25.7251 24.0154 25.6865 24.0154 25.6285C26.8735 25.6092 29.7692 25.5706 32.6462 25.5513Z" fill="#8E549B" stroke="black" stroke-width="0.25" stroke-miterlimit="10"/>
<path d="M21.5709 19.8143C20.3299 19.9108 19.1077 20.0074 17.6974 20.104C17.6974 20.6062 17.7162 21.1278 17.6974 21.6686C17.641 22.6924 17.3402 22.8276 16.494 22.2868C16.2872 21.997 16.0991 21.7073 15.8923 21.4175C15.9675 21.0119 16.0427 20.5869 16.0991 20.1813C16.212 20.2779 16.3436 20.3551 16.6068 20.5676C16.6068 18.8484 16.5692 17.2838 16.6256 15.6999C16.6444 15.101 16.4376 14.7533 15.9111 14.5988C15.9111 14.2318 15.9111 13.8455 15.9299 13.4785C17.6786 14.1352 19.3709 15.2942 21.3077 13.9614C21.4205 13.8841 21.6085 13.8648 21.7402 13.8262C21.8154 14.1545 21.9094 14.4829 21.9846 14.792C20.5932 15.4101 19.2581 16.3759 17.7162 15.3908C17.7162 16.6077 17.7162 17.6701 17.7162 18.8098C19.0701 18.8098 20.3111 18.8098 21.5521 18.8098C21.5709 19.1575 21.5709 19.4859 21.5709 19.8143Z" fill="#8E6EB1" stroke="black" stroke-width="0.25" stroke-miterlimit="10"/>
<path d="M15.9299 13.4785C15.9299 13.8455 15.9299 14.2318 15.9111 14.5988C15.5915 14.5215 15.2718 14.4443 14.9145 14.3477C14.9145 16.3952 14.9145 18.3655 14.9145 20.1813C15.3658 20.1813 15.7419 20.1813 16.1179 20.1813C16.0427 20.5869 15.9675 21.0119 15.9111 21.4175C15.5915 21.688 15.253 21.9584 14.9521 22.2481C14.4632 22.7504 14.0684 22.8276 13.7675 22.0743C13.7299 21.1471 13.6923 20.2199 13.6547 19.2927C13.4667 19.2155 13.2786 19.1382 13.0906 19.0416C13.0906 18.6939 13.1094 18.3462 13.1094 18.0178C13.5419 18.1337 13.8239 18.0951 13.8051 17.5156C13.7675 16.5498 13.7675 15.584 13.8051 14.6374C13.8427 14.0193 13.6359 13.6716 13.0718 13.4978C13.0906 13.1501 13.0906 12.7831 13.1094 12.4354C14.0496 12.7637 14.9897 13.1114 15.9299 13.4785Z" fill="#816FB1" stroke="black" stroke-width="0.25" stroke-miterlimit="10"/>
<path d="M13.1094 12.3967C13.0906 12.7444 13.0906 13.1114 13.0718 13.4591C12.5829 13.3046 12.5641 13.6137 12.5641 13.9614C12.5641 15.0431 12.5265 16.1441 12.5829 17.2259C12.6017 17.4963 12.9026 17.7474 13.0906 17.9985C13.0906 18.3462 13.0718 18.6939 13.0718 19.0223C11.6991 18.7712 11.5675 18.6166 11.5675 17.2452C11.5675 16.1441 11.5111 15.0624 11.5863 13.9614C11.6427 13.1694 11.4171 12.6865 10.6274 12.5319C10.4205 12.4933 10.2513 12.3388 10.0632 12.2422C10.1197 11.9138 10.1949 11.6048 10.2513 11.2764C11.2103 11.6627 12.1692 12.0297 13.1094 12.3967Z" fill="#7A70B2" stroke="black" stroke-width="0.25" stroke-miterlimit="10"/>
<path d="M10.2701 11.2957C10.2137 11.6241 10.1385 11.9331 10.0821 12.2615C8.97265 11.8559 7.84445 11.4502 6.75385 11.0059C6.5094 10.9094 6.17094 10.581 6.20855 10.3878C6.22735 10.156 6.54701 9.86627 6.81026 9.76969C8.20171 9.22882 9.63077 8.74591 11.041 8.24368C11.0974 8.6107 11.1727 8.95839 11.2291 9.32541C10.2889 9.6731 9.34872 10.0401 8.33333 10.4071C9.02906 10.7355 9.64957 11.0253 10.2701 11.2957Z" fill="#7573B6" stroke="black" stroke-width="0.25" stroke-miterlimit="10"/>
<path d="M11.2103 9.32541C11.1538 8.9584 11.0786 8.6107 11.0222 8.24369C12.6581 7.66419 14.2752 7.0847 15.9111 6.5052C15.9111 6.87222 15.9111 7.23923 15.9111 7.60624C14.3504 8.16642 12.7897 8.74592 11.2103 9.32541Z" fill="#816FB1" stroke="black" stroke-width="0.25" stroke-miterlimit="10"/>
<path d="M15.9111 7.58692C15.9111 7.21991 15.9111 6.85289 15.9111 6.48588C16.0427 6.40861 16.1556 6.35067 16.2872 6.2734C17.0393 6.02228 17.7727 5.6939 18.5436 5.53937C19.0325 5.44279 19.559 5.61664 20.0667 5.65527C19.9915 5.96434 19.9162 6.29272 19.8598 6.60178C19.3521 6.64041 18.8444 6.6211 18.3556 6.75631C17.547 7.00743 16.7385 7.31649 15.9111 7.58692Z" fill="#8E6EB1" stroke="black" stroke-width="0.25" stroke-miterlimit="10"/>
<path d="M13.6547 19.2927C13.6923 20.2199 13.7299 21.1471 13.7675 22.0743" stroke="black" stroke-width="0.25" stroke-miterlimit="10"/>
<path d="M26.8171 13.0921C26.7795 14.5215 26.7231 15.9703 26.7043 17.3997C26.6855 18.7325 26.6291 18.8098 25.3128 19.0223C25.1812 19.0802 25.0684 19.1189 24.9368 19.1768C24.8051 19.1961 24.6923 19.2155 24.5607 19.2155C24.5607 18.8678 24.5419 18.5394 24.5419 18.1917C24.9179 17.9406 25.5949 17.7281 25.6325 17.4576C25.7453 16.1441 25.6889 14.8113 25.6889 13.4205C25.3692 13.5171 25.1812 13.575 24.9744 13.633C24.4103 13.4398 24.5795 13.0535 24.7487 12.6672C25.7453 12.2808 26.7607 11.8945 27.7573 11.4889C27.8137 11.7979 27.8701 12.1263 27.9453 12.4354C27.5692 12.6672 27.1932 12.8796 26.8171 13.0921Z" fill="#AA6BAC" stroke="black" stroke-width="0.25" stroke-miterlimit="10"/>
<path d="M27.9453 12.4547C27.8889 12.1456 27.8325 11.8172 27.7573 11.5082C28.547 11.1605 29.3179 10.8128 30.1829 10.4458C29.3744 10.1174 28.6598 9.82763 27.9453 9.5572C28.0581 9.24814 28.1897 8.93908 28.3026 8.63001C28.3778 8.64933 28.4342 8.64933 28.5094 8.66865C28.6034 8.7266 28.7162 8.78454 28.8103 8.82318C29.788 9.15156 30.7846 9.4413 31.7624 9.80832C32.0256 9.9049 32.2137 10.2526 32.4393 10.4651C32.2137 10.6582 32.0444 10.948 31.7812 11.0639C30.5214 11.5275 29.2239 11.9718 27.9453 12.4547Z" fill="#B568A9" stroke="black" stroke-width="0.25" stroke-miterlimit="10"/>
<path d="M19.8786 6.64042C19.9538 6.33135 20.0291 6.00297 20.0855 5.69391C21.5333 6.19614 22.9812 6.71768 24.4103 7.21991C24.335 7.54829 24.2598 7.85736 24.1846 8.18574C22.7556 7.66419 21.3077 7.14265 19.8786 6.64042Z" fill="#9F6CAE" stroke="black" stroke-width="0.25" stroke-miterlimit="10"/>
<path d="M24.1846 8.18573C24.2598 7.85735 24.335 7.54829 24.4103 7.21991C25.7077 7.68351 27.0051 8.1471 28.3026 8.6107C28.1897 8.91976 28.0581 9.22882 27.9453 9.53789C26.7043 9.07429 25.4444 8.63001 24.1846 8.18573Z" fill="#AA6BAC" stroke="black" stroke-width="0.25" stroke-miterlimit="10"/>
<path d="M28.8103 8.78454C28.7162 8.72659 28.6034 8.66865 28.5094 8.63001C28.6222 8.68796 28.7162 8.74591 28.8103 8.78454Z" fill="#AA6BAC" stroke="black" stroke-width="0.25" stroke-miterlimit="10"/>
<path d="M24.5607 18.1917C24.5607 18.5394 24.5795 18.8678 24.5795 19.2155C23.5829 19.4086 22.5863 19.6211 21.5897 19.8143C21.5897 19.4859 21.5709 19.1575 21.5709 18.8291C22.5487 18.6166 23.5453 18.4042 24.5607 18.1917Z" fill="#9F6CAE" stroke="black" stroke-width="0.25" stroke-miterlimit="10"/>
<path d="M24.9556 19.1768C25.0872 19.1189 25.2 19.0802 25.3316 19.0223C25.2 19.0802 25.0684 19.1189 24.9556 19.1768Z" fill="#9F6CAE" stroke="black" stroke-width="0.25" stroke-miterlimit="10"/>
<path d="M24.9744 13.633C23.9778 14.0193 22.9812 14.425 21.9846 14.8113C21.9094 14.4829 21.8154 14.1545 21.7402 13.8455C22.7368 13.4591 23.7521 13.0728 24.7487 12.6865C24.5795 13.0535 24.4103 13.4398 24.9744 13.633Z" fill="#9F6CAE" stroke="black" stroke-width="0.25" stroke-miterlimit="10"/>
</svg>
